<?xml version="1.0" encoding="UTF-8"?>
<svg version="1.1" xmlns="http://www.w3.org/2000/svg" width="48" height="48">
<path d="M0 0 C2.8009401 1.36006835 5.49280438 2.87920995 8.1875 4.4375 C8.91130859 4.84548828 9.63511719 5.25347656 10.38085938 5.67382812 C15.71623038 8.71623038 15.71623038 8.71623038 18 11 C18.22705078 13.52197266 18.22705078 13.52197266 18.1953125 16.6640625 C18.18886719 17.78554688 18.18242188 18.90703125 18.17578125 20.0625 C18.15902344 21.238125 18.14226563 22.41375 18.125 23.625 C18.11597656 24.80835937 18.10695312 25.99171875 18.09765625 27.2109375 C18.07402812 30.14082523 18.04108514 33.0703134 18 36 C14.76114441 37.87416423 11.5073541 39.72070405 8.25 41.5625 C6.86941406 42.36204102 6.86941406 42.36204102 5.4609375 43.17773438 C4.57148438 43.67724609 3.68203125 44.17675781 2.765625 44.69140625 C1.94868164 45.15748291 1.13173828 45.62355957 0.29003906 46.10375977 C-2.39888516 47.15610953 -3.35204777 47.04918862 -6 46 C-7.2952354 45.37813317 -8.56886662 44.7097648 -9.8203125 44.00390625 C-10.52027344 43.61009766 -11.22023438 43.21628906 -11.94140625 42.81054688 C-12.66199219 42.39869141 -13.38257813 41.98683594 -14.125 41.5625 C-15.21748047 40.95051758 -15.21748047 40.95051758 -16.33203125 40.32617188 C-21.73464152 37.26535848 -21.73464152 37.26535848 -24 35 C-24.61635682 31.10901873 -24.60228424 27.18374359 -24.6875 23.25 C-24.75388672 22.16460938 -24.82027344 21.07921875 -24.88867188 19.9609375 C-25.037598 12.10148148 -25.037598 12.10148148 -22.13232422 9.01733398 C-19.81947722 7.47214818 -17.4993153 6.21571177 -15 5 C-14.04609375 4.36191406 -13.0921875 3.72382812 -12.109375 3.06640625 C-11.33078125 2.57011719 -10.5521875 2.07382812 -9.75 1.5625 C-8.96109375 1.04816406 -8.1721875 0.53382812 -7.359375 0.00390625 C-4.2748972 -1.30852884 -3.17122897 -1.09510065 0 0 Z M-9.75 9.5 C-10.94882812 10.19609375 -10.94882812 10.19609375 -12.171875 10.90625 C-12.77515625 11.2671875 -13.3784375 11.628125 -14 12 C-9.29928117 15.96718463 -9.29928117 15.96718463 -4 19 C0.31207305 17.97871954 4.19738288 15.2368336 8 13 C1.77339971 8.15708867 -2.30955645 5.1232685 -9.75 9.5 Z M-18 19 C-18.54061053 23.12465815 -18.78795295 26.89847009 -18 31 C-15.40682617 33.86034932 -12.55634677 35.53637714 -9 37 C-8.34 37 -7.68 37 -7 37 C-6.45938947 32.87534185 -6.21204705 29.10152991 -7 25 C-9.59317383 22.13965068 -12.44365323 20.46362286 -16 19 C-16.66 19 -17.32 19 -18 19 Z M2.93359375 22.8671875 C0.33330864 25.73538077 0.40589258 27.55501792 0.4375 31.375 C0.58149881 33.25384156 0.75511632 35.13162819 1 37 C6.95752582 34.76660507 6.95752582 34.76660507 12 31 C12.52306592 26.95567585 12.34430719 23.05517363 12 19 C8.43939528 19 5.83482672 20.94541078 2.93359375 22.8671875 Z " fill="#9FEF00" transform="translate(27,1)"/>
</svg>
